<svg width="25" height="29" viewBox="0 0 25 29" fill="none" xmlns="http://www.w3.org/2000/svg">
<path fill-rule="evenodd" clip-rule="evenodd" d="M2.41833 9.51207C2.41833 8.5414 3.11275 7.75452 3.96936 7.75452H21.0307C21.8873 7.75452 22.5817 8.5414 22.5817 9.51207V23.5725C22.5817 24.5432 21.8873 25.33 21.0307 25.33H3.96936C3.11275 25.33 2.41833 24.5432 2.41833 23.5725V9.51207ZM21.0307 9.51207H3.96936V23.5725H21.0307V9.51207Z" fill="#73B6F6"/>
<path fill-rule="evenodd" clip-rule="evenodd" d="M12.5 5.11815C11.6773 5.11815 10.8883 5.48849 10.3065 6.1477C9.72477 6.80691 9.39795 7.70099 9.39795 8.63326V12.1484C9.39795 12.6337 9.05074 13.0271 8.62244 13.0271C8.19413 13.0271 7.84692 12.6337 7.84692 12.1484V8.63326C7.84692 7.23486 8.33716 5.89374 9.20978 4.90492C10.0824 3.91611 11.2659 3.3606 12.5 3.3606C13.7341 3.3606 14.9176 3.91611 15.7902 4.90492C16.6629 5.89374 17.1531 7.23486 17.1531 8.63326V12.1484C17.1531 12.6337 16.8059 13.0271 16.3776 13.0271C15.9493 13.0271 15.6021 12.6337 15.6021 12.1484V8.63326C15.6021 7.70099 15.2752 6.80691 14.6935 6.1477C14.1117 5.48849 13.3227 5.11815 12.5 5.11815Z" fill="#73B6F6"/>
</svg>
