<svg width="25" height="29" viewBox="0 0 25 29" fill="none" xmlns="http://www.w3.org/2000/svg">
<path fill-rule="evenodd" clip-rule="evenodd" d="M9.39795 10.5885C9.39795 10.1032 9.74516 9.70972 10.1735 9.70972H14.8265C15.2549 9.70972 15.6021 10.1032 15.6021 10.5885C15.6021 11.0738 15.2549 11.4673 14.8265 11.4673H10.1735C9.74516 11.4673 9.39795 11.0738 9.39795 10.5885Z" fill="#73B6F6"/>
<path fill-rule="evenodd" clip-rule="evenodd" d="M14.2811 5.89949C14.8637 5.24635 15.6501 4.88 16.4697 4.88C17.2892 4.88 18.0756 5.24635 18.6582 5.89949C18.7275 5.97722 18.7833 6.06907 18.8226 6.17022L23.0588 17.078C23.2314 17.5223 23.0534 18.0408 22.6614 18.2363C22.2694 18.4318 21.8117 18.2302 21.6392 17.786L17.4687 7.04732C17.1893 6.78357 16.8361 6.63756 16.4697 6.63756C16.1586 6.63756 15.857 6.7428 15.6021 6.93599V18.9369C15.6021 19.4222 15.2548 19.8157 14.8265 19.8157C14.3982 19.8157 14.051 19.4222 14.051 18.9369V6.52419C14.051 6.2895 14.1339 6.06455 14.2811 5.89949Z" fill="#73B6F6"/>
<path fill-rule="evenodd" clip-rule="evenodd" d="M6.34176 5.89949C6.92435 5.24635 7.71079 4.88 8.53032 4.88C9.34985 4.88 10.1363 5.24635 10.7189 5.89949C10.8661 6.06455 10.949 6.2895 10.949 6.52419V18.9369C10.949 19.4222 10.6017 19.8157 10.1734 19.8157C9.74513 19.8157 9.39792 19.4222 9.39792 18.9369V6.93599C9.14298 6.7428 8.8414 6.63756 8.53032 6.63756C8.16391 6.63756 7.81069 6.78357 7.53132 7.04732L3.36077 17.786C3.18825 18.2302 2.7306 18.4318 2.33858 18.2363C1.94655 18.0408 1.76861 17.5223 1.94113 17.078L6.17738 6.17022C6.21666 6.06907 6.27243 5.97722 6.34176 5.89949Z" fill="#73B6F6"/>
<path fill-rule="evenodd" clip-rule="evenodd" d="M6.29591 15.4217C4.58269 15.4217 3.19385 16.9955 3.19385 18.9368C3.19385 20.8782 4.58269 22.452 6.29591 22.452C8.00912 22.452 9.39796 20.8782 9.39796 18.9368C9.39796 16.9955 8.00912 15.4217 6.29591 15.4217ZM1.64282 18.9368C1.64282 16.0248 3.72608 13.6642 6.29591 13.6642C8.86573 13.6642 10.949 16.0248 10.949 18.9368C10.949 21.8489 8.86573 24.2095 6.29591 24.2095C3.72608 24.2095 1.64282 21.8489 1.64282 18.9368Z" fill="#73B6F6"/>
<path fill-rule="evenodd" clip-rule="evenodd" d="M18.7041 15.4217C16.9909 15.4217 15.6021 16.9955 15.6021 18.9368C15.6021 20.8782 16.9909 22.452 18.7041 22.452C20.4173 22.452 21.8062 20.8782 21.8062 18.9368C21.8062 16.9955 20.4173 15.4217 18.7041 15.4217ZM14.051 18.9368C14.051 16.0248 16.1343 13.6642 18.7041 13.6642C21.2739 13.6642 23.3572 16.0248 23.3572 18.9368C23.3572 21.8489 21.2739 24.2095 18.7041 24.2095C16.1343 24.2095 14.051 21.8489 14.051 18.9368Z" fill="#73B6F6"/>
</svg>
