<svg width="25" height="29" viewBox="0 0 25 29" fill="none" xmlns="http://www.w3.org/2000/svg">
<path fill-rule="evenodd" clip-rule="evenodd" d="M3.1228 5.50921C3.1228 4.53857 3.80132 3.75171 4.63831 3.75171H7.66933C8.50633 3.75171 9.18484 4.53857 9.18484 5.50921V23.0842C9.18484 24.0549 8.50633 24.8417 7.66933 24.8417H4.63831C3.80132 24.8417 3.1228 24.0549 3.1228 23.0842V5.50921ZM7.66933 5.50921H4.63831V23.0842H7.66933V5.50921Z" fill="#73B6F6"/>
<path fill-rule="evenodd" clip-rule="evenodd" d="M3.1228 9.0242C3.1228 8.53888 3.46206 8.14545 3.88056 8.14545H8.42709C8.84558 8.14545 9.18484 8.53888 9.18484 9.0242C9.18484 9.50952 8.84558 9.90295 8.42709 9.90295H3.88056C3.46206 9.90295 3.1228 9.50952 3.1228 9.0242Z" fill="#73B6F6"/>
<path fill-rule="evenodd" clip-rule="evenodd" d="M7.66931 5.50921C7.66931 4.53857 8.34783 3.75171 9.18482 3.75171H12.2158C13.0528 3.75171 13.7314 4.53857 13.7314 5.50921V23.0842C13.7314 24.0549 13.0528 24.8417 12.2158 24.8417H9.18482C8.34783 24.8417 7.66931 24.0549 7.66931 23.0842V5.50921ZM12.2158 5.50921H9.18482V23.0842H12.2158V5.50921Z" fill="#73B6F6"/>
<path fill-rule="evenodd" clip-rule="evenodd" d="M7.66931 19.5692C7.66931 19.0839 8.00857 18.6904 8.42707 18.6904H12.9736C13.3921 18.6904 13.7314 19.0839 13.7314 19.5692C13.7314 20.0545 13.3921 20.4479 12.9736 20.4479H8.42707C8.00857 20.4479 7.66931 20.0545 7.66931 19.5692Z" fill="#73B6F6"/>
<path fill-rule="evenodd" clip-rule="evenodd" d="M12.5054 6.5661C12.2877 5.62458 12.7695 4.65674 13.5814 4.40438L16.5215 3.49048C17.3333 3.23811 18.1679 3.79678 18.3855 4.7383L22.3259 21.7861C22.5435 22.7276 22.0617 23.6954 21.2499 23.9478L18.3098 24.8617C17.4979 25.114 16.6633 24.5554 16.4457 23.6139L12.5054 6.5661ZM16.9155 5.19525L13.9754 6.10915L17.9157 23.1569L20.8558 22.243L16.9155 5.19525Z" fill="#73B6F6"/>
<path fill-rule="evenodd" clip-rule="evenodd" d="M21.4344 18.3191C21.5433 18.7877 21.3039 19.2699 20.8998 19.3962L16.5049 20.7692C16.1008 20.8955 15.6849 20.6179 15.5761 20.1493C15.4672 19.6807 15.7065 19.1985 16.1106 19.0722L20.5056 17.6992C20.9097 17.5729 21.3255 17.8505 21.4344 18.3191Z" fill="#73B6F6"/>
<path fill-rule="evenodd" clip-rule="evenodd" d="M19.0858 8.13824C19.1938 8.6071 18.9537 9.08877 18.5494 9.21407L14.1544 10.5761C13.7501 10.7014 13.3347 10.4229 13.2267 9.95405C13.1186 9.48519 13.3588 9.00352 13.7631 8.87822L18.1581 7.51616C18.5624 7.39085 18.9777 7.66937 19.0858 8.13824Z" fill="#73B6F6"/>
</svg>
