<svg width="25" height="26" viewBox="0 0 25 26" fill="none" xmlns="http://www.w3.org/2000/svg">
<path fill-rule="evenodd" clip-rule="evenodd" d="M3.19385 5.49888C3.19385 4.64215 3.88827 3.94763 4.74488 3.94763H20.2552C21.1118 3.94763 21.8062 4.64215 21.8062 5.49888V21.0114C21.8062 21.8681 21.1118 22.5626 20.2552 22.5626H4.74488C3.88827 22.5626 3.19385 21.8681 3.19385 21.0114V5.49888ZM20.2552 5.49888H4.74488V21.0114H20.2552V5.49888Z" fill="#73B6F6"/>
<path fill-rule="evenodd" clip-rule="evenodd" d="M17.1531 2.39636C17.5814 2.39636 17.9286 2.74362 17.9286 3.17199V6.27449C17.9286 6.70285 17.5814 7.05011 17.1531 7.05011C16.7248 7.05011 16.3776 6.70285 16.3776 6.27449V3.17199C16.3776 2.74362 16.7248 2.39636 17.1531 2.39636Z" fill="#73B6F6"/>
<path fill-rule="evenodd" clip-rule="evenodd" d="M7.84693 2.39636C8.27523 2.39636 8.62244 2.74362 8.62244 3.17199V6.27449C8.62244 6.70285 8.27523 7.05011 7.84693 7.05011C7.41862 7.05011 7.07141 6.70285 7.07141 6.27449V3.17199C7.07141 2.74362 7.41862 2.39636 7.84693 2.39636Z" fill="#73B6F6"/>
<path fill-rule="evenodd" clip-rule="evenodd" d="M3.19385 9.37694C3.19385 8.94858 3.54106 8.60132 3.96936 8.60132H21.0307C21.459 8.60132 21.8062 8.94858 21.8062 9.37694C21.8062 9.80531 21.459 10.1526 21.0307 10.1526H3.96936C3.54106 10.1526 3.19385 9.80531 3.19385 9.37694Z" fill="#73B6F6"/>
</svg>
