<svg width="25" height="29" viewBox="0 0 25 29" fill="none" xmlns="http://www.w3.org/2000/svg">
<path fill-rule="evenodd" clip-rule="evenodd" d="M3.19385 4.99731C3.62215 4.99731 3.96936 5.39076 3.96936 5.87609V22.5728H21.8062C22.2345 22.5728 22.5817 22.9663 22.5817 23.4516C22.5817 23.937 22.2345 24.3304 21.8062 24.3304H3.19385C2.76554 24.3304 2.41833 23.937 2.41833 23.4516V5.87609C2.41833 5.39076 2.76554 4.99731 3.19385 4.99731Z" fill="#73B6F6"/>
<path fill-rule="evenodd" clip-rule="evenodd" d="M20.8035 7.01227C21.1064 7.35545 21.1064 7.91186 20.8035 8.25505L13.0484 17.0428C12.7455 17.386 12.2545 17.386 11.9516 17.0428L9.39796 14.1491L3.74222 20.5579C3.43936 20.9011 2.94833 20.9011 2.64548 20.5579C2.34262 20.2147 2.34262 19.6583 2.64548 19.3151L8.84959 12.2849C9.15245 11.9417 9.64347 11.9417 9.94633 12.2849L12.5 15.1786L19.7068 7.01227C20.0096 6.66909 20.5007 6.66909 20.8035 7.01227Z" fill="#73B6F6"/>
<path fill-rule="evenodd" clip-rule="evenodd" d="M15.6021 7.63366C15.6021 7.14832 15.9493 6.75488 16.3776 6.75488H20.2551C20.6834 6.75488 21.0306 7.14832 21.0306 7.63366V12.0275C21.0306 12.5129 20.6834 12.9063 20.2551 12.9063C19.8268 12.9063 19.4796 12.5129 19.4796 12.0275V8.51244H16.3776C15.9493 8.51244 15.6021 8.11899 15.6021 7.63366Z" fill="#73B6F6"/>
</svg>
