<svg width="26" height="26" viewBox="0 0 26 26" fill="none" xmlns="http://www.w3.org/2000/svg">
<path fill-rule="evenodd" clip-rule="evenodd" d="M12.5918 7.15509C13.0233 7.15509 13.373 7.50487 13.373 7.93634V9.49884C13.373 9.93031 13.0233 10.2801 12.5918 10.2801C12.1603 10.2801 11.8105 9.93031 11.8105 9.49884V7.93634C11.8105 7.50487 12.1603 7.15509 12.5918 7.15509Z" fill="#73B6F6"/>
<path fill-rule="evenodd" clip-rule="evenodd" d="M12.5918 16.5301C13.0233 16.5301 13.373 16.8799 13.373 17.3113V18.8738C13.373 19.3053 13.0233 19.6551 12.5918 19.6551C12.1603 19.6551 11.8105 19.3053 11.8105 18.8738V17.3113C11.8105 16.8799 12.1603 16.5301 12.5918 16.5301Z" fill="#73B6F6"/>
<path fill-rule="evenodd" clip-rule="evenodd" d="M12.5918 4.81134C7.8456 4.81134 3.99805 8.65889 3.99805 13.4051C3.99805 18.1513 7.8456 21.9988 12.5918 21.9988C17.338 21.9988 21.1855 18.1513 21.1855 13.4051C21.1855 8.65889 17.338 4.81134 12.5918 4.81134ZM2.43555 13.4051C2.43555 7.79595 6.98266 3.24884 12.5918 3.24884C18.2009 3.24884 22.748 7.79595 22.748 13.4051C22.748 19.0142 18.2009 23.5613 12.5918 23.5613C6.98266 23.5613 2.43555 19.0142 2.43555 13.4051Z" fill="#73B6F6"/>
<path fill-rule="evenodd" clip-rule="evenodd" d="M11.4199 10.2801C11.1091 10.2801 10.8111 10.4036 10.5913 10.6233C10.3715 10.8431 10.248 11.1412 10.248 11.452C10.248 11.7628 10.3715 12.0608 10.5913 12.2806C10.8111 12.5004 11.1091 12.6238 11.4199 12.6238H13.7637C14.4889 12.6238 15.1844 12.9119 15.6972 13.4247C16.21 13.9375 16.498 14.633 16.498 15.3582C16.498 16.0834 16.21 16.7789 15.6972 17.2917C15.1844 17.8045 14.4889 18.0926 13.7637 18.0926H10.248C9.81657 18.0926 9.4668 17.7428 9.4668 17.3113C9.4668 16.8799 9.81657 16.5301 10.248 16.5301H13.7637C14.0745 16.5301 14.3725 16.4066 14.5923 16.1869C14.8121 15.9671 14.9355 15.669 14.9355 15.3582C14.9355 15.0474 14.8121 14.7493 14.5923 14.5296C14.3725 14.3098 14.0745 14.1863 13.7637 14.1863H11.4199C10.6947 14.1863 9.99922 13.8983 9.48643 13.3855C8.97363 12.8727 8.68555 12.1772 8.68555 11.452C8.68555 10.7268 8.97363 10.0313 9.48643 9.51847C9.99922 9.00568 10.6947 8.71759 11.4199 8.71759H14.9355C15.367 8.71759 15.7168 9.06737 15.7168 9.49884C15.7168 9.93031 15.367 10.2801 14.9355 10.2801H11.4199Z" fill="#73B6F6"/>
</svg>
