<svg width="25" height="29" viewBox="0 0 25 29" fill="none" xmlns="http://www.w3.org/2000/svg">
<path fill-rule="evenodd" clip-rule="evenodd" d="M6.76445 6.61581C5.34176 7.50498 4.69326 8.58894 4.69326 9.57258C4.69326 10.5562 5.34176 11.6402 6.76445 12.5293C8.15814 13.4004 10.1359 13.9663 12.3624 13.9663C14.5889 13.9663 16.5667 13.4004 17.9604 12.5293C19.3831 11.6402 20.0316 10.5562 20.0316 9.57258C20.0316 8.58894 19.3831 7.50498 17.9604 6.61581C16.5667 5.74476 14.5889 5.17883 12.3624 5.17883C10.1359 5.17883 8.15814 5.74476 6.76445 6.61581ZM6.02997 5.0729C7.68954 4.03568 9.92982 3.42133 12.3624 3.42133C14.795 3.42133 17.0353 4.03568 18.6949 5.0729C20.3254 6.092 21.5654 7.64429 21.5654 9.57258C21.5654 11.5009 20.3254 13.0532 18.6949 14.0722C17.0353 15.1095 14.795 15.7238 12.3624 15.7238C9.92982 15.7238 7.68954 15.1095 6.02997 14.0722C4.3994 13.0532 3.15942 11.5009 3.15942 9.57258C3.15942 7.64429 4.3994 6.092 6.02997 5.0729Z" fill="#73B6F6"/>
<path fill-rule="evenodd" clip-rule="evenodd" d="M3.92634 8.69385C4.3499 8.69385 4.69326 9.08728 4.69326 9.5726V14.8451C4.69326 15.8281 5.34171 16.9121 6.76452 17.8015C8.15825 18.6727 10.136 19.2388 12.3624 19.2388C14.5888 19.2388 16.5666 18.6727 17.9603 17.8015C19.3831 16.9121 20.0316 15.8281 20.0316 14.8451V9.5726C20.0316 9.08728 20.3749 8.69385 20.7985 8.69385C21.222 8.69385 21.5654 9.08728 21.5654 9.5726V14.8451C21.5654 16.7729 20.3253 18.3252 18.6949 19.3443C17.0353 20.3817 14.795 20.9963 12.3624 20.9963C9.92981 20.9963 7.68953 20.3817 6.02997 19.3443C4.3995 18.3252 3.15942 16.7729 3.15942 14.8451V9.5726C3.15942 9.08728 3.50278 8.69385 3.92634 8.69385Z" fill="#73B6F6"/>
<path fill-rule="evenodd" clip-rule="evenodd" d="M3.92634 13.9664C4.3499 13.9664 4.69326 14.3598 4.69326 14.8451V20.1176C4.69326 21.1007 5.34171 22.1846 6.76452 23.074C8.15825 23.9452 10.136 24.5114 12.3624 24.5114C14.5888 24.5114 16.5666 23.9452 17.9603 23.074C19.3831 22.1846 20.0316 21.1007 20.0316 20.1176V14.8451C20.0316 14.3598 20.3749 13.9664 20.7985 13.9664C21.222 13.9664 21.5654 14.3598 21.5654 14.8451V20.1176C21.5654 22.0454 20.3253 23.5977 18.6949 24.6169C17.0353 25.6542 14.795 26.2689 12.3624 26.2689C9.92981 26.2689 7.68953 25.6542 6.02997 24.6169C4.3995 23.5977 3.15942 22.0454 3.15942 20.1176V14.8451C3.15942 14.3598 3.50278 13.9664 3.92634 13.9664Z" fill="#73B6F6"/>
</svg>
