<svg width="25" height="29" viewBox="0 0 25 29" fill="none" xmlns="http://www.w3.org/2000/svg">
<path fill-rule="evenodd" clip-rule="evenodd" d="M2.33899 6.17636C2.33899 5.69104 2.67436 5.29761 3.08806 5.29761H21.0659C21.4796 5.29761 21.8149 5.69104 21.8149 6.17636V21.1151C21.8149 21.5812 21.6571 22.0282 21.3761 22.3578C21.0952 22.6874 20.7141 22.8726 20.3168 22.8726H3.83714C3.43981 22.8726 3.05875 22.6874 2.77779 22.3578C2.49683 22.0283 2.33899 21.5812 2.33899 21.1151V6.17636ZM3.83714 7.05511V21.1151H20.3168V7.05511H3.83714Z" fill="#73B6F6"/>
<path fill-rule="evenodd" clip-rule="evenodd" d="M2.53588 5.58257C2.81543 5.22481 3.28927 5.20065 3.59424 5.52859L12.077 14.6505L20.5597 5.52859C20.8647 5.20065 21.3385 5.22481 21.618 5.58257C21.8976 5.94033 21.877 6.49619 21.572 6.82414L12.5831 16.4904C12.2967 16.7984 11.8572 16.7984 11.5708 16.4904L2.5819 6.82414C2.27694 6.49619 2.25634 5.94033 2.53588 5.58257Z" fill="#73B6F6"/>
</svg>
