<svg width="40" height="40" viewBox="0 0 40 40" fill="none" xmlns="http://www.w3.org/2000/svg">
<path fill-rule="evenodd" clip-rule="evenodd" d="M6.98223 4.48223C7.45107 4.01339 8.08696 3.75 8.75 3.75H23.75C24.0815 3.75 24.3995 3.8817 24.6339 4.11612L33.3839 12.8661C33.6183 13.1005 33.75 13.4185 33.75 13.75V33.75C33.75 34.413 33.4866 35.0489 33.0178 35.5178C32.5489 35.9866 31.913 36.25 31.25 36.25H8.75C8.08696 36.25 7.45108 35.9866 6.98223 35.5178C6.51339 35.0489 6.25 34.413 6.25 33.75V6.25C6.25 5.58696 6.51339 4.95107 6.98223 4.48223ZM23.2322 6.25L8.75 6.25L8.75 33.75H31.25V14.2678L23.2322 6.25Z" fill="#73B6F6"/>
<path fill-rule="evenodd" clip-rule="evenodd" d="M23.75 3.75C24.4404 3.75 25 4.30964 25 5V12.5H32.5C33.1904 12.5 33.75 13.0596 33.75 13.75C33.75 14.4404 33.1904 15 32.5 15H23.75C23.0596 15 22.5 14.4404 22.5 13.75V5C22.5 4.30964 23.0596 3.75 23.75 3.75Z" fill="#73B6F6"/>
<path fill-rule="evenodd" clip-rule="evenodd" d="M14.7411 23.4911C15.2293 23.003 16.0207 23.003 16.5089 23.4911L20 26.9822L23.4911 23.4911C23.9793 23.003 24.7707 23.003 25.2589 23.4911C25.747 23.9793 25.747 24.7707 25.2589 25.2589L20.8839 29.6339C20.3957 30.122 19.6043 30.122 19.1161 29.6339L14.7411 25.2589C14.253 24.7707 14.253 23.9793 14.7411 23.4911Z" fill="#73B6F6"/>
<path fill-rule="evenodd" clip-rule="evenodd" d="M20 17.5C20.6904 17.5 21.25 18.0596 21.25 18.75V28.75C21.25 29.4404 20.6904 30 20 30C19.3096 30 18.75 29.4404 18.75 28.75V18.75C18.75 18.0596 19.3096 17.5 20 17.5Z" fill="#73B6F6"/>
</svg>
