<svg width="26" height="29" viewBox="0 0 26 29" fill="none" xmlns="http://www.w3.org/2000/svg">
<path fill-rule="evenodd" clip-rule="evenodd" d="M2.95856 6.45226C3.25842 6.12267 3.66512 5.9375 4.08919 5.9375H9.41899C9.76259 5.93905 10.0967 6.06148 10.3724 6.28684L10.3743 6.28839L13.1506 8.57159C13.1506 8.57154 13.1507 8.57164 13.1506 8.57159C13.1522 8.57282 13.1543 8.57367 13.1562 8.57375H20.0787C20.5028 8.57375 20.9095 8.75891 21.2093 9.08851C21.5092 9.41811 21.6777 9.86513 21.6777 10.3313V12.9675C21.6777 13.4528 21.3197 13.8463 20.8782 13.8463C20.4367 13.8463 20.0787 13.4528 20.0787 12.9675V10.3313H13.15C12.8064 10.3297 12.4722 10.2073 12.1965 9.98191L12.1946 9.98036L9.41833 7.69716C9.41827 7.69711 9.4184 7.69721 9.41833 7.69716C9.41675 7.69593 9.41468 7.69508 9.41274 7.695L4.08919 7.695L4.08919 23.5125C4.08919 23.9978 3.73125 24.3913 3.28971 24.3913C2.84817 24.3913 2.49023 23.9978 2.49023 23.5125V7.695C2.49023 7.22888 2.6587 6.78185 2.95856 6.45226Z" fill="#73B6F6"/>
<path fill-rule="evenodd" clip-rule="evenodd" d="M14.7222 12.0888H22.9668C22.9667 12.0888 22.9668 12.0888 22.9668 12.0888C23.2196 12.0888 23.4689 12.1547 23.694 12.281C23.9192 12.4074 24.1139 12.5907 24.2622 12.8158C24.4104 13.041 24.508 13.3015 24.5468 13.5761C24.5857 13.8507 24.5648 14.1315 24.4858 14.3955L24.4848 14.3988L21.6366 23.7904C21.5278 24.1493 21.2223 24.3913 20.8782 24.3913H3.28971C3.02443 24.3913 2.77642 24.2467 2.62769 24.0052C2.47897 23.7638 2.44889 23.4569 2.54742 23.1862L5.54408 14.9517C5.54435 14.951 5.54461 14.9503 5.54487 14.9495C5.66268 14.6227 5.86748 14.3425 6.13253 14.1457C6.39733 13.949 6.7099 13.8447 7.02942 13.8463C7.03044 13.8463 7.03146 13.8463 7.03247 13.8463L7.02727 14.7251V13.8463H7.02942H11.8371C11.8366 13.8463 11.8361 13.8464 11.8356 13.8464L11.8441 14.7251V13.8609L12.2838 14.5823L11.8565 13.8396C11.8554 13.8403 11.8544 13.841 11.8532 13.8416L13.8375 12.3803C13.8434 12.376 13.8493 12.3718 13.8552 12.3677C14.1123 12.189 14.4095 12.0924 14.7137 12.0889L14.7222 12.0888ZM11.8441 13.8483V13.8463H11.8371C11.8427 13.846 11.8482 13.8444 11.8532 13.8416L11.8441 13.8483ZM14.7292 13.8463C14.7236 13.8466 14.7181 13.8482 14.7131 13.851L12.7288 15.3123C12.723 15.3166 12.7171 15.3208 12.7111 15.325C12.454 15.5037 12.1568 15.6002 11.8526 15.6038L11.8441 15.6039L7.02889 15.6038L4.47057 22.6338H20.302L22.9669 13.8463H14.7292Z" fill="#73B6F6"/>
</svg>
