<svg width="46" height="27" viewBox="0 0 46 27" fill="none" xmlns="http://www.w3.org/2000/svg">
<path d="M39.3834 1.14508H5.87824C3.23476 1.14508 1.0918 2.34354 1.0918 3.82193V22.5598C1.0918 24.0382 3.23476 25.2367 5.87824 25.2367H39.3834C42.0268 25.2367 44.1698 24.0382 44.1698 22.5598V3.82193C44.1698 2.34354 42.0268 1.14508 39.3834 1.14508Z" stroke="#73B6F6" stroke-width="2" stroke-linecap="round" stroke-linejoin="round"/>
<path d="M37.8364 18.3342L36.9014 15.2987H33.028L32.1227 18.3342H30.416L33.9481 7.1236H36.0555L39.5876 18.3342H37.8364ZM35.0018 8.79395H34.9276L33.4287 13.7408H36.4859L35.0018 8.79395Z" fill="#73B6F6"/>
<path d="M22.9004 18.3342V7.1236H27.3526C28.3123 7.1236 29.0544 7.42876 29.5787 8.03908C30.1031 8.6494 30.3653 9.46851 30.3653 10.4964C30.3653 11.5243 30.1031 12.3434 29.5787 12.9538C29.0544 13.5641 28.3123 13.8692 27.3526 13.8692H24.5774V18.3342H22.9004ZM24.5774 12.2792H27.2487C27.6742 12.2792 28.0056 12.1614 28.2431 11.9259C28.4805 11.6796 28.5992 11.3316 28.5992 10.8819V10.111C28.5992 9.66125 28.4805 9.31861 28.2431 9.08305C28.0056 8.83678 27.6742 8.71364 27.2487 8.71364H24.5774V12.2792Z" fill="#73B6F6"/>
<path d="M17.4722 18.5273C16.8093 18.5273 16.2107 18.4042 15.6764 18.1579C15.1422 17.9009 14.6871 17.5262 14.3111 17.0336C13.9351 16.5304 13.6433 15.9201 13.4355 15.2027C13.2376 14.4853 13.1387 13.6608 13.1387 12.7293C13.1387 11.7977 13.2376 10.9732 13.4355 10.2559C13.6433 9.53846 13.9351 8.93349 14.3111 8.44095C14.6871 7.94841 15.1422 7.57366 15.6764 7.31668C16.2107 7.0597 16.8093 6.93121 17.4722 6.93121C18.3824 6.93121 19.1096 7.14001 19.6538 7.5576C20.1979 7.97518 20.6333 8.51055 20.9598 9.1637L19.7131 10.0792C19.5054 9.56523 19.2135 9.1637 18.8375 8.8746C18.4715 8.5855 18.0163 8.44095 17.4722 8.44095C16.8093 8.44095 16.2602 8.6551 15.8249 9.0834C15.3994 9.51169 15.1174 10.0845 14.9789 10.8019H18.6001V12.0386H14.9047V13.4199H18.6001V14.6566H14.9789C15.1174 15.3954 15.3994 15.9736 15.8249 16.3912C16.2602 16.8088 16.8093 17.0176 17.4722 17.0176C18.0361 17.0176 18.511 16.8623 18.8969 16.5518C19.2828 16.2413 19.5895 15.813 19.817 15.2669L21.0636 16.2145C20.9152 16.525 20.7322 16.8248 20.5145 17.1139C20.3068 17.3923 20.0545 17.6386 19.7577 17.8527C19.4707 18.0562 19.1393 18.2168 18.7633 18.3346C18.3874 18.4631 17.957 18.5273 17.4722 18.5273Z" fill="#73B6F6"/>
<path d="M7.82932 18.5273C6.95866 18.5273 6.21662 18.356 5.6032 18.0134C4.99968 17.6707 4.48025 17.2103 4.04492 16.6321L5.2025 15.4596C5.56857 15.9415 5.96928 16.3055 6.40461 16.5518C6.84983 16.7981 7.35441 16.9212 7.91836 16.9212C8.58125 16.9212 9.08089 16.7606 9.41728 16.4394C9.75367 16.1181 9.92187 15.6845 9.92187 15.1384C9.92187 14.6994 9.80314 14.3514 9.56569 14.0944C9.32824 13.8375 8.90775 13.6447 8.30422 13.5163L7.3841 13.3396C6.37492 13.1361 5.61804 12.7774 5.11346 12.2635C4.60887 11.7495 4.35658 11.0428 4.35658 10.1434C4.35658 9.65089 4.44068 9.20653 4.60887 8.81036C4.78696 8.40348 5.02936 8.0662 5.33607 7.79851C5.65267 7.52012 6.03359 7.30597 6.47881 7.15607C6.92403 7.00617 7.42367 6.93121 7.97773 6.93121C8.75934 6.93121 9.43707 7.08112 10.0109 7.38092C10.5848 7.67002 11.0745 8.09296 11.4801 8.64975L10.3077 9.77402C10.0406 9.39926 9.7141 9.09946 9.32824 8.8746C8.94238 8.64975 8.46253 8.53732 7.88868 8.53732C7.29505 8.53732 6.83499 8.66581 6.50849 8.92279C6.18199 9.17976 6.01874 9.55452 6.01874 10.0471C6.01874 10.5182 6.15231 10.8715 6.41945 11.1071C6.68658 11.3319 7.10212 11.5033 7.66607 11.621L8.5862 11.8298C9.62505 12.044 10.3819 12.408 10.8568 12.922C11.3416 13.4359 11.584 14.1426 11.584 15.0421C11.584 15.5667 11.4999 16.0432 11.3317 16.4715C11.1635 16.8998 10.9162 17.2692 10.5897 17.5797C10.2731 17.8795 9.88229 18.1151 9.41728 18.2864C8.95227 18.447 8.42295 18.5273 7.82932 18.5273Z" fill="#73B6F6"/>
</svg>
