<svg width="24" height="24" viewBox="0 0 24 24" fill="none" xmlns="http://www.w3.org/2000/svg">
<path fill-rule="evenodd" clip-rule="evenodd" d="M12 1.84615C6.39219 1.84615 1.84615 6.39219 1.84615 12C1.84615 17.6078 6.39219 22.1538 12 22.1538C17.6078 22.1538 22.1538 17.6078 22.1538 12C22.1538 6.39219 17.6078 1.84615 12 1.84615ZM0 12C0 5.37258 5.37258 0 12 0C18.6274 0 24 5.37258 24 12C24 18.6274 18.6274 24 12 24C5.37258 24 0 18.6274 0 12Z" fill="#73B6F6"/>
<path fill-rule="evenodd" clip-rule="evenodd" d="M3.51402 3.51231C3.8745 3.15182 4.45896 3.15182 4.81944 3.51231L20.4887 19.1815C20.8492 19.542 20.8492 20.1265 20.4887 20.487C20.1282 20.8474 19.5437 20.8474 19.1832 20.487L3.51402 4.81773C3.15353 4.45725 3.15353 3.87279 3.51402 3.51231Z" fill="#73B6F6"/>
</svg>
