<svg width="24" height="24" viewBox="0 0 24 24" fill="none" xmlns="http://www.w3.org/2000/svg">
<path d="M12 21.3333C14.5778 21.3333 16.7778 20.4278 18.6 18.6167C20.4222 16.8056 21.3333 14.6 21.3333 12C21.3333 9.42222 20.4222 7.22222 18.6 5.4C16.7778 3.57778 14.5778 2.66667 12 2.66667C9.4 2.66667 7.19444 3.57778 5.38333 5.4C3.57222 7.22222 2.66667 9.42222 2.66667 12C2.66667 14.6 3.57222 16.8056 5.38333 18.6167C7.19444 20.4278 9.4 21.3333 12 21.3333ZM12 17.3333C10.1556 17.3333 8.51667 16.8389 7.08333 15.85C5.65 14.8611 4.62222 13.5778 4 12C4.62222 10.4444 5.65 9.16667 7.08333 8.16667C8.51667 7.16667 10.1556 6.66667 12 6.66667C13.8222 6.66667 15.45 7.16667 16.8833 8.16667C18.3167 9.16667 19.3556 10.4444 20 12C19.3556 13.5778 18.3167 14.8611 16.8833 15.85C15.45 16.8389 13.8222 17.3333 12 17.3333ZM12 15.3333C13.2222 15.3333 14.3444 15.0389 15.3667 14.45C16.3889 13.8611 17.1889 13.0444 17.7667 12C17.1889 10.9778 16.3889 10.1667 15.3667 9.56667C14.3444 8.96667 13.2222 8.66667 12 8.66667C10.7556 8.66667 9.62222 8.96667 8.6 9.56667C7.57778 10.1667 6.77778 10.9778 6.2 12C6.77778 13.0444 7.57778 13.8611 8.6 14.45C9.62222 15.0389 10.7556 15.3333 12 15.3333ZM12 14C12.5556 14 13.0278 13.8111 13.4167 13.4333C13.8056 13.0556 14 12.5778 14 12C14 11.4444 13.8056 10.9722 13.4167 10.5833C13.0278 10.1944 12.5556 10 12 10C11.4222 10 10.9444 10.1944 10.5667 10.5833C10.1889 10.9722 10 11.4444 10 12C10 12.5778 10.1889 13.0556 10.5667 13.4333C10.9444 13.8111 11.4222 14 12 14ZM12 24C10.3333 24 8.77222 23.6833 7.31667 23.05C5.86111 22.4167 4.59444 21.5611 3.51667 20.4833C2.43889 19.4056 1.58333 18.1389 0.95 16.6833C0.316667 15.2278 0 13.6667 0 12C0 10.3556 0.316667 8.80556 0.95 7.35C1.58333 5.89444 2.43889 4.62222 3.51667 3.53333C4.59444 2.44444 5.86111 1.58333 7.31667 0.95C8.77222 0.316667 10.3333 0 12 0C13.6444 0 15.1944 0.316667 16.65 0.95C18.1056 1.58333 19.3778 2.44444 20.4667 3.53333C21.5556 4.62222 22.4167 5.89444 23.05 7.35C23.6833 8.80556 24 10.3556 24 12C24 13.4222 23.7667 14.7667 23.3 16.0333C22.8333 17.3 22.1889 18.4556 21.3667 19.5L19.4667 21.4C18.4222 22.2222 17.2667 22.8611 16 23.3167C14.7333 23.7722 13.4 24 12 24Z" fill="#73B6F6"/>
</svg>
