<svg width="25" height="30" viewBox="0 0 25 30" fill="none" xmlns="http://www.w3.org/2000/svg">
<path fill-rule="evenodd" clip-rule="evenodd" d="M3.84304 21.1163C3.01433 21.1163 2.34254 21.9032 2.34254 22.8738C2.34254 23.8445 3.01433 24.6313 3.84304 24.6313C4.67174 24.6313 5.34353 23.8445 5.34353 22.8738C5.34353 21.9032 4.67174 21.1163 3.84304 21.1163ZM0.842041 22.8738C0.842041 20.9325 2.18563 19.3588 3.84304 19.3588C5.50044 19.3588 6.84403 20.9325 6.84403 22.8738C6.84403 24.8151 5.50044 26.3888 3.84304 26.3888C2.18563 26.3888 0.842041 24.8151 0.842041 22.8738Z" fill="#73B6F6"/>
<path fill-rule="evenodd" clip-rule="evenodd" d="M9.09475 9.69262C8.26604 9.69262 7.59425 10.4795 7.59425 11.4501C7.59425 12.4208 8.26604 13.2076 9.09475 13.2076C9.92345 13.2076 10.5952 12.4208 10.5952 11.4501C10.5952 10.4795 9.92345 9.69262 9.09475 9.69262ZM6.09375 11.4501C6.09375 9.50884 7.43734 7.93512 9.09475 7.93512C10.7521 7.93512 12.0957 9.50884 12.0957 11.4501C12.0957 13.3914 10.7521 14.9651 9.09475 14.9651C7.43734 14.9651 6.09375 13.3914 6.09375 11.4501Z" fill="#73B6F6"/>
<path fill-rule="evenodd" clip-rule="evenodd" d="M15.0968 16.7226C14.2681 16.7226 13.5963 17.5094 13.5963 18.4801C13.5963 19.4507 14.2681 20.2376 15.0968 20.2376C15.9255 20.2376 16.5973 19.4507 16.5973 18.4801C16.5973 17.5094 15.9255 16.7226 15.0968 16.7226ZM12.0958 18.4801C12.0958 16.5388 13.4394 14.9651 15.0968 14.9651C16.7542 14.9651 18.0978 16.5388 18.0978 18.4801C18.0978 20.4214 16.7542 21.9951 15.0968 21.9951C13.4394 21.9951 12.0958 20.4214 12.0958 18.4801Z" fill="#73B6F6"/>
<path fill-rule="evenodd" clip-rule="evenodd" d="M20.3485 5.29882C19.5198 5.29882 18.848 6.08568 18.848 7.05632C18.848 8.02696 19.5198 8.81382 20.3485 8.81382C21.1772 8.81382 21.849 8.02696 21.849 7.05632C21.849 6.08568 21.1772 5.29882 20.3485 5.29882ZM17.3475 7.05632C17.3475 5.11504 18.6911 3.54132 20.3485 3.54132C22.0059 3.54132 23.3495 5.11504 23.3495 7.05632C23.3495 8.9976 22.0059 10.5713 20.3485 10.5713C18.6911 10.5713 17.3475 8.9976 17.3475 7.05632Z" fill="#73B6F6"/>
<path fill-rule="evenodd" clip-rule="evenodd" d="M8.38073 12.9937C8.74574 13.2233 8.88268 13.7561 8.68659 14.1836L5.57305 20.972C5.37696 21.3995 4.9221 21.5599 4.55708 21.3302C4.19207 21.1006 4.05513 20.5678 4.25122 20.1403L7.36476 13.3519C7.56085 12.9244 8.01571 12.764 8.38073 12.9937Z" fill="#73B6F6"/>
<path fill-rule="evenodd" clip-rule="evenodd" d="M10.1586 12.696C10.4516 12.3529 10.9266 12.3529 11.2196 12.696L14.033 15.9914C14.326 16.3345 14.326 16.8909 14.033 17.2341C13.74 17.5773 13.265 17.5773 12.972 17.2341L10.1586 13.9388C9.8656 13.5956 9.8656 13.0392 10.1586 12.696Z" fill="#73B6F6"/>
<path fill-rule="evenodd" clip-rule="evenodd" d="M19.6345 8.59992C19.9995 8.8296 20.1365 9.36237 19.9404 9.78991L16.8268 16.5782C16.6307 17.0058 16.1759 17.1662 15.8109 16.9365C15.4459 16.7068 15.3089 16.174 15.505 15.7465L18.6185 8.95817C18.8146 8.53064 19.2695 8.37024 19.6345 8.59992Z" fill="#73B6F6"/>
</svg>
