<svg width="40" height="40" viewBox="0 0 40 40" fill="none" xmlns="http://www.w3.org/2000/svg">
<g id="Phosphor icons / PencilSimpleLine">
<path id="Vector (Stroke)" fill-rule="evenodd" clip-rule="evenodd" d="M25.2845 4.4618C25.5903 4.33376 25.9185 4.26782 26.25 4.26782C26.5815 4.26782 26.9097 4.33376 27.2155 4.4618C27.5196 4.5891 27.7954 4.77524 28.0272 5.00952L34.9906 11.9729C35.2249 12.2047 35.411 12.4805 35.5383 12.7846C35.6663 13.0904 35.7323 13.4186 35.7323 13.7501C35.7323 14.0816 35.6663 14.4099 35.5383 14.7157C35.411 15.0197 35.2249 15.2955 34.9906 15.5272L15.8839 34.634C15.6495 34.8684 15.3315 35.0001 15 35.0001H7.5C6.83696 35.0001 6.20108 34.7367 5.73223 34.2679C5.26339 33.799 5 33.1631 5 32.5001V25.5176M25.2845 4.4618C24.9804 4.58912 24.7045 4.7753 24.4727 5.00963L25.2845 4.4618ZM7.5 25.5179V32.5001H14.4822L33.2323 13.7501L33.2255 13.7434L26.25 6.76785L26.2433 6.77464L7.5 25.5179Z" fill="#1DA1F2"/>
<path id="Vector (Stroke)_2" fill-rule="evenodd" clip-rule="evenodd" d="M20.3661 9.11612C20.8543 8.62796 21.6457 8.62796 22.1339 9.11612L30.8839 17.8661C31.372 18.3543 31.372 19.1457 30.8839 19.6339C30.3957 20.122 29.6043 20.122 29.1161 19.6339L20.3661 10.8839C19.878 10.3957 19.878 9.60427 20.3661 9.11612Z" fill="#1DA1F2"/>
</g>
</svg>
