<svg width="29" height="29" viewBox="0 0 29 29" fill="none" xmlns="http://www.w3.org/2000/svg">
<g id="Phosphor icons / BellRinging">
<path id="Vector (Stroke)" fill-rule="evenodd" clip-rule="evenodd" d="M14.9399 5.73443C14.0196 5.73443 13.1083 5.9157 12.258 6.26788C11.4078 6.62007 10.6352 7.13628 9.98445 7.78703C9.33369 8.43779 8.81748 9.21035 8.4653 10.0606C8.11311 10.9109 7.93184 11.8222 7.93184 12.7425C7.93184 16.7985 7.0814 19.2412 6.26531 20.6512H23.6144C22.7983 19.2412 21.9479 16.7985 21.9479 12.7425C21.9479 11.8222 21.7666 10.9109 21.4144 10.0606C21.0623 9.21035 20.5461 8.43779 19.8953 7.78703C19.2445 7.13628 18.472 6.62007 17.6217 6.26788C16.7715 5.9157 15.8602 5.73443 14.9399 5.73443ZM11.5855 4.64416C12.6489 4.20366 13.7888 3.97693 14.9399 3.97693C16.091 3.97693 17.2308 4.20366 18.2943 4.64416C19.3578 5.08467 20.3241 5.73034 21.138 6.54429C21.952 7.35825 22.5977 8.32455 23.0382 9.38804C23.4787 10.4515 23.7054 11.5914 23.7054 12.7425C23.7054 16.5504 24.5023 18.677 25.1359 19.7716L25.1365 19.7725C25.2905 20.0392 25.3717 20.3417 25.3719 20.6497C25.3722 20.9576 25.2915 21.2603 25.138 21.5273C24.9845 21.7943 24.7635 22.0162 24.4972 22.1709C24.2309 22.3256 23.9286 22.4076 23.6206 22.4087L23.6175 22.4087H6.26222L6.25912 22.4087C5.95115 22.4076 5.64886 22.3256 5.38254 22.1709C5.11623 22.0162 4.89524 21.7943 4.74172 21.5273C4.5882 21.2603 4.50754 20.9576 4.50781 20.6497C4.50809 20.3417 4.58929 20.0392 4.74328 19.7725L4.7438 19.7716C5.37749 18.677 6.17434 16.5504 6.17434 12.7425C6.17434 11.5914 6.40107 10.4515 6.84158 9.38804C7.28209 8.32455 7.92775 7.35825 8.74171 6.54429C9.55566 5.73034 10.522 5.08467 11.5855 4.64416Z" fill="#73B6F6"/>
<path id="Vector (Stroke)_2" fill-rule="evenodd" clip-rule="evenodd" d="M11.4249 20.6512C11.9102 20.6512 12.3036 21.0447 12.3036 21.53V22.4087C12.3036 23.1079 12.5814 23.7785 13.0758 24.2729C13.5702 24.7672 14.2407 25.045 14.9399 25.045C15.6391 25.045 16.3096 24.7672 16.804 24.2729C17.2984 23.7785 17.5761 23.1079 17.5761 22.4087V21.53C17.5761 21.0447 17.9696 20.6512 18.4549 20.6512C18.9402 20.6512 19.3336 21.0447 19.3336 21.53V22.4087C19.3336 23.574 18.8707 24.6916 18.0467 25.5156C17.2228 26.3396 16.1052 26.8025 14.9399 26.8025C13.7746 26.8025 12.657 26.3396 11.833 25.5156C11.0091 24.6916 10.5461 23.574 10.5461 22.4087V21.53C10.5461 21.0447 10.9396 20.6512 11.4249 20.6512Z" fill="#73B6F6"/>
<path id="Vector (Stroke)_3" fill-rule="evenodd" clip-rule="evenodd" d="M20.2823 2.60718C20.5413 2.19679 21.084 2.07411 21.4944 2.33317C23.4199 3.54864 24.974 5.27037 25.9865 7.30993C26.2023 7.74463 26.0249 8.27196 25.5902 8.48777C25.1555 8.70357 24.6281 8.52612 24.4123 8.09142C23.5432 6.34065 22.2092 4.86271 20.5563 3.81934C20.1459 3.56027 20.0232 3.01757 20.2823 2.60718Z" fill="#73B6F6"/>
<path id="Vector (Stroke)_4" fill-rule="evenodd" clip-rule="evenodd" d="M9.59761 2.60718C9.85667 3.01757 9.73399 3.56027 9.32359 3.81934C7.67072 4.86271 6.33671 6.34065 5.46755 8.09142C5.25175 8.52612 4.72441 8.70357 4.28971 8.48777C3.85501 8.27196 3.67756 7.74463 3.89336 7.30993C4.90588 5.27037 6.45994 3.54864 8.38545 2.33317C8.79584 2.07411 9.33854 2.19679 9.59761 2.60718Z" fill="#73B6F6"/>
</g>
</svg>
