<svg width="14" height="15" viewBox="0 0 14 15" fill="none" xmlns="http://www.w3.org/2000/svg">
<path id="Vector" d="M9.31333 10.854C8.32733 11.6794 7.05733 12.1774 5.67267 12.1774C2.54133 12.1774 0 9.63604 0 6.50537C0 3.37471 2.54133 0.833374 5.67267 0.833374C8.80267 0.833374 11.3447 3.37471 11.3447 6.50537C11.3447 7.89071 10.8467 9.16137 10.0213 10.146L13.1873 13.3127C13.2847 13.41 13.3333 13.538 13.3333 13.6667C13.3333 14.058 12.9753 14.1667 12.8333 14.1667C12.7053 14.1667 12.5773 14.118 12.4793 14.02L9.31333 10.854ZM5.67267 1.83404C3.094 1.83404 1.00133 3.92737 1.00133 6.50537C1.00133 9.08337 3.094 11.1767 5.67267 11.1767C8.25 11.1767 10.344 9.08337 10.344 6.50537C10.344 3.92737 8.25 1.83404 5.67267 1.83404Z" fill="#6F757E"/>
</svg>
