<svg width="25" height="29" viewBox="0 0 25 29" fill="none" xmlns="http://www.w3.org/2000/svg">
<g id="Phosphor icons / UsersThree">
<path id="Vector (Stroke)" fill-rule="evenodd" clip-rule="evenodd" d="M12.4085 12.2263C10.6952 12.2263 9.3064 13.8001 9.3064 15.7414C9.3064 17.6827 10.6952 19.2565 12.4085 19.2565C14.1217 19.2565 15.5105 17.6827 15.5105 15.7414C15.5105 13.8001 14.1217 12.2263 12.4085 12.2263ZM7.75537 15.7414C7.75537 12.8294 9.83863 10.4688 12.4085 10.4688C14.9783 10.4688 17.0615 12.8294 17.0615 15.7414C17.0615 18.6534 14.9783 21.0141 12.4085 21.0141C9.83863 21.0141 7.75537 18.6534 7.75537 15.7414Z" fill="#73B6F6"/>
<path id="Vector (Stroke)_2" fill-rule="evenodd" clip-rule="evenodd" d="M21.2555 14.5846C20.5557 14.1881 19.7838 13.9824 19.0014 13.9839C18.5731 13.9847 18.2253 13.5919 18.2246 13.1066C18.2239 12.6212 18.5705 12.2271 18.9988 12.2263C20.0229 12.2244 21.0332 12.4936 21.9491 13.0126C22.8651 13.5315 23.6613 14.2858 24.2744 15.2153C24.5308 15.6041 24.4605 16.1548 24.1175 16.4453C23.7744 16.7359 23.2884 16.6563 23.032 16.2675C22.5636 15.5574 21.9553 14.9811 21.2555 14.5846Z" fill="#73B6F6"/>
<path id="Vector (Stroke)_3" fill-rule="evenodd" clip-rule="evenodd" d="M5.81504 13.9839C5.03265 13.9824 4.26077 14.1881 3.56098 14.5846C2.86118 14.9811 2.25283 15.5574 1.78444 16.2675C1.52804 16.6563 1.04206 16.7359 0.698986 16.4453C0.355913 16.1548 0.285658 15.6041 0.542067 15.2153C1.15513 14.2858 1.95139 13.5315 2.86734 13.0126C3.78329 12.4936 4.79358 12.2244 5.81764 12.2263C6.24594 12.2271 6.59257 12.6212 6.59185 13.1066C6.59114 13.5919 6.24335 13.9847 5.81504 13.9839Z" fill="#73B6F6"/>
<path id="Vector (Stroke)_4" fill-rule="evenodd" clip-rule="evenodd" d="M12.4082 21.0168C11.3896 21.0168 10.3914 21.341 9.5274 21.9525C8.66342 22.5639 7.96835 23.4381 7.52139 24.4753C7.33346 24.9114 6.86911 25.0924 6.48424 24.8794C6.09937 24.6664 5.93971 24.1403 6.12764 23.7041C6.70208 22.3711 7.59538 21.2476 8.70578 20.4618C9.81618 19.6759 11.099 19.2593 12.4082 19.2593C13.7174 19.2593 15.0003 19.6759 16.1107 20.4618C17.2211 21.2476 18.1144 22.3711 18.6888 23.7041C18.8767 24.1403 18.7171 24.6664 18.3322 24.8794C17.9473 25.0924 17.483 24.9114 17.295 24.4753C16.8481 23.4381 16.153 22.5639 15.289 21.9525C14.425 21.341 13.4269 21.0168 12.4082 21.0168Z" fill="#73B6F6"/>
<path id="Vector (Stroke)_5" fill-rule="evenodd" clip-rule="evenodd" d="M6.39093 7.0362C5.96319 6.91193 5.51307 6.92816 5.09317 7.083C4.67327 7.23784 4.30092 7.5249 4.01965 7.91062C3.73837 8.29635 3.55977 8.76482 3.50472 9.26129C3.44968 9.75776 3.52046 10.2617 3.70879 10.7143C3.89712 11.1669 4.19522 11.5494 4.56827 11.8171C4.94132 12.0849 5.3739 12.2268 5.81548 12.2263C6.24378 12.2258 6.59134 12.6188 6.59178 13.1041C6.59221 13.5895 6.24536 13.9833 5.81705 13.9838C5.08109 13.9847 4.36012 13.7482 3.73837 13.3019C3.11662 12.8557 2.61978 12.2182 2.3059 11.4639C1.99201 10.7096 1.87405 9.86964 1.9658 9.04219C2.05754 8.21474 2.3552 7.43396 2.824 6.79109C3.29279 6.14821 3.91336 5.66979 4.6132 5.41172C5.31304 5.15365 6.06323 5.12659 6.77614 5.33371C7.48904 5.54083 8.1352 5.97357 8.63913 6.58136C9.14305 7.18916 9.48393 7.94691 9.62192 8.76607C9.70222 9.2428 9.42628 9.70303 9.00557 9.79404C8.58486 9.88504 8.17871 9.57234 8.0984 9.09562C8.0156 8.60412 7.81108 8.14947 7.50872 7.78479C7.20637 7.42011 6.81867 7.16047 6.39093 7.0362Z" fill="#73B6F6"/>
<path id="Vector (Stroke)_6" fill-rule="evenodd" clip-rule="evenodd" d="M19.7233 7.083C19.3034 6.92816 18.8533 6.91193 18.4255 7.0362C17.9978 7.16047 17.6101 7.42011 17.3078 7.78479C17.0054 8.14947 16.8009 8.60412 16.7181 9.09562C16.6378 9.57234 16.2316 9.88504 15.8109 9.79404C15.3902 9.70303 15.1143 9.2428 15.1946 8.76607C15.3326 7.94691 15.6734 7.18916 16.1774 6.58136C16.6813 5.97357 17.3274 5.54083 18.0403 5.33371C18.7532 5.12659 19.5034 5.15365 20.2033 5.41172C20.9031 5.66979 21.5237 6.14821 21.9925 6.79109C22.4613 7.43396 22.7589 8.21474 22.8507 9.04219C22.9424 9.86964 22.8245 10.7096 22.5106 11.4639C22.1967 12.2182 21.6999 12.8557 21.0781 13.3019C20.4564 13.7482 19.7354 13.9847 18.9994 13.9838C18.5711 13.9833 18.2243 13.5895 18.2247 13.1041C18.2251 12.6188 18.5727 12.2258 19.001 12.2263C19.4426 12.2268 19.8752 12.0849 20.2482 11.8171C20.6213 11.5494 20.9194 11.1669 21.1077 10.7143C21.296 10.2617 21.3668 9.75776 21.3118 9.26129C21.2567 8.76481 21.0781 8.29635 20.7968 7.91062C20.5156 7.5249 20.1432 7.23784 19.7233 7.083Z" fill="#73B6F6"/>
</g>
</svg>
