<svg width="25" height="29" viewBox="0 0 25 29" fill="none" xmlns="http://www.w3.org/2000/svg">
<g id="Phosphor icons / HourglassMedium">
<path id="Vector (Stroke)" fill-rule="evenodd" clip-rule="evenodd" d="M5.88356 3.39318C6.17448 3.06358 6.56905 2.87842 6.98046 2.87842H17.8392C18.2506 2.87842 18.6452 3.06358 18.9361 3.39318C19.227 3.72277 19.3905 4.1698 19.3905 4.63592V8.55177C19.389 8.82263 19.3326 9.08949 19.2257 9.33176C19.1188 9.57403 18.9642 9.78524 18.7738 9.94909L12.8778 15.0029C12.6019 15.2394 12.2212 15.2403 11.9445 15.0052L6.04589 9.99304C5.85551 9.82919 5.70091 9.61797 5.59399 9.3757C5.48707 9.13343 5.4307 8.86657 5.42923 8.59571L5.4292 8.59029L5.42921 4.63592C5.42921 4.1698 5.59265 3.72277 5.88356 3.39318ZM17.8392 4.63592H6.98046V8.58542C6.98054 8.58691 6.98088 8.58838 6.98147 8.58972C6.98207 8.59106 6.98289 8.59225 6.9839 8.59322L12.4078 13.202L17.8354 8.54962C17.8354 8.54966 17.8354 8.54958 17.8354 8.54962C17.8365 8.54862 17.8376 8.54723 17.8382 8.54578C17.8388 8.54444 17.8391 8.54298 17.8392 8.54148V4.63592Z" fill="#73B6F6"/>
<path id="Vector (Stroke)_2" fill-rule="evenodd" clip-rule="evenodd" d="M11.9444 13.5991C12.2212 13.3639 12.6019 13.3648 12.8778 13.6013L18.7738 18.6552C18.9641 18.819 19.1188 19.0302 19.2257 19.2725C19.3326 19.5148 19.389 19.7816 19.3904 20.0525L19.3905 20.0579L19.3905 23.9683C19.3905 24.4345 19.227 24.8815 18.9361 25.2111C18.6452 25.5407 18.2506 25.7258 17.8392 25.7258H6.98045C6.56903 25.7258 6.17447 25.5407 5.88355 25.2111C5.59263 24.8815 5.4292 24.4345 5.4292 23.9683V20.0085C5.43067 19.7377 5.48706 19.4708 5.59398 19.2286C5.7009 18.9863 5.85551 18.7751 6.04588 18.6112L6.04969 18.608L11.9444 13.5991ZM6.98045 20.0188C6.98052 20.0173 6.98087 20.0159 6.98146 20.0145C6.98205 20.0132 6.98288 20.012 6.98389 20.011L12.4078 15.4023L17.8354 20.0546C17.8353 20.0546 17.8354 20.0547 17.8354 20.0546C17.8365 20.0556 17.8376 20.057 17.8382 20.0585C17.8384 20.0589 17.8386 20.0594 17.8387 20.0599C17.839 20.0608 17.8392 20.0618 17.8392 20.0628V23.9683H6.98045V20.0188Z" fill="#73B6F6"/>
<path id="Vector (Stroke)_3" fill-rule="evenodd" clip-rule="evenodd" d="M6.4668 9.90854C6.4668 9.42321 6.81406 9.02979 7.24242 9.02979H17.5388C17.9672 9.02979 18.3145 9.42321 18.3145 9.90854C18.3145 10.3939 17.9672 10.7873 17.5388 10.7873H7.24242C6.81406 10.7873 6.4668 10.3939 6.4668 9.90854Z" fill="#73B6F6"/>
<path id="Vector (Stroke)_4" fill-rule="evenodd" clip-rule="evenodd" d="M12.4099 13.4233C12.8383 13.4233 13.1855 13.8168 13.1855 14.3021V18.6958C13.1855 19.1812 12.8383 19.5746 12.4099 19.5746C11.9815 19.5746 11.6343 19.1812 11.6343 18.6958V14.3021C11.6343 13.8168 11.9815 13.4233 12.4099 13.4233Z" fill="#73B6F6"/>
</g>
</svg>
