<svg width="25" height="29" viewBox="0 0 25 29" fill="none" xmlns="http://www.w3.org/2000/svg">
<g id="Phosphor icons / FilmScript">
<path id="Vector (Stroke)" fill-rule="evenodd" clip-rule="evenodd" d="M3.87744 4.51463C3.87744 3.54396 4.57186 2.75708 5.42847 2.75708H19.3877C20.2443 2.75708 20.9387 3.54396 20.9387 4.51463V23.8477C20.9387 24.8184 20.2443 25.6053 19.3877 25.6053H5.42847C4.57186 25.6053 3.87744 24.8184 3.87744 23.8477V4.51463ZM19.3877 4.51463H5.42847V23.8477H19.3877V4.51463Z" fill="#73B6F6"/>
<path id="Vector" d="M8.14276 9.78745C8.78522 9.78745 9.30603 9.19729 9.30603 8.46929C9.30603 7.74129 8.78522 7.15112 8.14276 7.15112C7.50031 7.15112 6.97949 7.74129 6.97949 8.46929C6.97949 9.19729 7.50031 9.78745 8.14276 9.78745Z" fill="#73B6F6"/>
<path id="Vector_2" d="M8.14276 21.2115C8.78522 21.2115 9.30603 20.6214 9.30603 19.8934C9.30603 19.1654 8.78522 18.5752 8.14276 18.5752C7.50031 18.5752 6.97949 19.1654 6.97949 19.8934C6.97949 20.6214 7.50031 21.2115 8.14276 21.2115Z" fill="#73B6F6"/>
<path id="Vector_3" d="M8.14276 15.4994C8.78522 15.4994 9.30603 14.9092 9.30603 14.1812C9.30603 13.4532 8.78522 12.863 8.14276 12.863C7.50031 12.863 6.97949 13.4532 6.97949 14.1812C6.97949 14.9092 7.50031 15.4994 8.14276 15.4994Z" fill="#73B6F6"/>
</g>
</svg>
