<svg width="26" height="27" viewBox="0 0 26 27" fill="none" xmlns="http://www.w3.org/2000/svg">
<path d="M12.5918 24.6784C18.3448 24.6784 23.0085 19.8281 23.0085 13.8451C23.0085 7.86197 18.3448 3.01172 12.5918 3.01172C6.83887 3.01172 2.17517 7.86197 2.17517 13.8451C2.17517 19.8281 6.83887 24.6784 12.5918 24.6784Z" stroke="#73B6F6" stroke-width="2" stroke-linecap="round" stroke-linejoin="round"/>
<path d="M12.5918 20.3451C16.0436 20.3451 18.8418 17.4349 18.8418 13.8451C18.8418 10.2552 16.0436 7.34509 12.5918 7.34509C9.14002 7.34509 6.3418 10.2552 6.3418 13.8451C6.3418 17.4349 9.14002 20.3451 12.5918 20.3451Z" stroke="#73B6F6" stroke-width="2" stroke-linecap="round" stroke-linejoin="round"/>
<path d="M12.5918 16.0118C13.7423 16.0118 14.6751 15.0417 14.6751 13.8451C14.6751 12.6485 13.7423 11.6785 12.5918 11.6785C11.4412 11.6785 10.5084 12.6485 10.5084 13.8451C10.5084 15.0417 11.4412 16.0118 12.5918 16.0118Z" stroke="#73B6F6" stroke-width="2" stroke-linecap="round" stroke-linejoin="round"/>
</svg>
